<svg width="96" height="96" viewBox="0 0 96 96" fill="none" xmlns="http://www.w3.org/2000/svg">
<path d="M50.7912 13.4392C46.3077 14.5371 42.9846 17.0258 41.0593 20.6612C39.556 23.4915 39.3714 24.687 39.2132 32.0066L39.0549 38.7163L33.1209 38.7895C27.4769 38.8383 27.1868 38.8627 26.6066 39.375C26 39.8874 26 39.9606 26 45.6699C26 51.3792 26 51.4524 26.6066 51.9648C27.1868 52.4772 27.4769 52.5016 33.1209 52.5504L39.0549 52.6236L39.1868 67.4092C39.3187 80.8041 39.3714 82.2192 39.767 82.5852C40.1626 82.9512 40.9802 83 46.6505 83C52.8483 83 53.112 82.9756 53.5868 82.4876C54.0615 81.9997 54.0879 81.2921 54.2197 67.2872L54.3516 52.6236L60.6021 52.5504L66.879 52.5016L67.2746 51.7452C67.512 51.3304 67.8285 49.9885 67.9604 48.7686C68.0922 47.5242 68.3823 45.2551 68.6197 43.718C69.0944 40.107 69.0944 40.0094 68.3823 39.375C67.7757 38.8627 67.5911 38.8383 60.9977 38.8383H54.2197V34.2513L54.2461 29.6887L54.9582 28.7128C55.3538 28.176 56.1714 27.4929 56.7252 27.2001C57.7274 26.6877 58.0966 26.6389 62.8175 26.6389C69.5428 26.6389 68.9889 27.2245 68.9889 20.0024C68.9889 13.3904 69.0417 13.5368 66.2197 13.2196C65.1911 13.0976 61.7098 13 58.4395 13C53.6659 13.0244 52.1626 13.0976 50.7912 13.4392Z" fill="black"/>
</svg>
