<svg width="229" height="229" viewBox="0 0 229 229" fill="none" xmlns="http://www.w3.org/2000/svg">
<path d="M48.4595 32.2686C47.539 33.191 48.0644 42.3312 49.4749 52.1339C50.8855 61.9366 51.2698 77.4165 50.2102 86.5215C46.7401 117.301 52.5102 137.272 74.5844 169.906C86.2859 187.18 94.6968 194.396 107.011 197.627C124.523 202.216 139.882 191.843 158.943 161.453C176.349 134.198 179.911 120.52 178.403 88.0864C177.798 72.9016 178.258 54.1405 179.208 46.1046C180.561 35.3776 180.225 31.213 177.976 30.2201C176.279 29.411 161.28 31.306 144.882 34.4556C115.622 39.7192 114.074 39.9419 85.6514 34.5528C55.3856 29.1655 50.8517 28.7647 48.4595 32.2686ZM103.37 60.7038C103.444 61.2197 101.273 64.4285 98.6225 67.9696C95.2726 72.1379 90.336 74.4281 82.597 75.5417C76.4058 76.4326 68.1528 79.4634 64.3223 82.121C55.7037 88.1007 55.0021 86.8852 61.7017 78.5485C64.6099 74.9703 70.2461 72.0528 75.6263 71.0153C82.8494 69.9759 95.0072 64.8035 102.705 59.7461C102.963 59.709 103.258 59.9299 103.37 60.7038ZM146.723 69.2106C157.819 71.3002 169.105 78.3654 169.848 83.5247C170.33 86.8783 169.519 86.7317 165.388 83.6399C162.437 81.4314 153.44 77.4599 145.144 74.704C135.226 71.6549 128.883 67.8282 126.999 63.8863L123.786 58.0292L130.536 62.8507C134.335 65.4637 141.599 68.3681 146.723 69.2106ZM103.314 78.6167C103.574 80.4224 102.583 84.5147 100.928 87.6493C98.426 92.2222 94.6679 93.5529 78.158 95.9286L58.5525 98.7497L64.4059 91.8514C68.4925 87.3137 73.9079 84.6913 81.0939 83.394C87.0271 82.5402 94.1017 80.469 96.7537 78.7708C99.4057 77.0726 101.837 75.6696 102.353 75.5953C102.574 75.3002 103.054 76.8109 103.314 78.6167ZM143.125 82.6305C149.574 81.7025 164.582 89.0219 166.652 94.2536C168.647 98.9694 168.131 99.0436 158.915 97.2101C153.496 96.1467 146.566 95.5641 143.433 95.7516C136.984 96.6796 125.548 86.7396 124.508 79.5165C123.803 74.6152 124.061 74.5781 131.253 78.8094C135.568 81.3482 140.803 82.9646 143.125 82.6305ZM85.8194 127.213C84.0898 129.832 81.0369 136.064 79.5671 140.488C77.6556 145.503 76.2934 147.015 75.9222 144.436C75.3283 140.308 84.8933 122.607 87.7309 122.198C88.7628 122.05 87.7699 124.299 85.8194 127.213ZM126.689 122.122C131.411 125.655 109.224 127.005 103.213 123.657C97.7916 120.751 98.5284 120.381 110.618 120.222C117.989 120.214 124.956 121.055 126.689 122.122ZM150.554 139.752L153.22 150.955L148.121 139.313C145.093 132.903 140.92 125.867 138.743 123.547C135.718 120.823 136.529 120.969 141.177 123.987C145.566 127.042 148.704 132.383 150.554 139.752ZM132.608 143.125C142.346 150.413 145.852 154.648 146.743 160.839C147.374 165.224 147.377 168.91 146.862 168.984C146.346 169.059 138.935 166.965 130.16 164.542C116.113 160.244 112.428 160.247 96.9143 164.06C86.0073 166.946 79.2631 167.653 79.0032 165.847C78.335 161.204 90.1865 144.753 97.7009 140.249C110.998 132.016 118.702 132.487 132.608 143.125ZM125.409 168.122C132.562 170.252 132.894 170.731 127.033 170.258C123.31 170.004 114.317 169.718 107.203 169.688L93.9709 169.223L105.579 167.552C111.991 166.366 120.985 166.652 125.409 168.122Z" fill="#2F4D87"/>
</svg>
