<svg width="229" height="229" viewBox="0 0 229 229" fill="none" xmlns="http://www.w3.org/2000/svg">
<path d="M94.8078 52.9946C80.4762 59.0139 68.8676 61.1637 53.5327 60.877C45.6503 60.7337 38.7712 61.0204 38.1979 61.5936C37.6246 62.1669 38.3412 66.753 39.7744 72.0557C41.0642 77.2151 42.9273 87.1039 43.6439 93.8398C45.3637 108.745 49.2333 117.63 59.6953 129.382C71.1607 142.424 77.1799 146.294 86.0656 146.294C92.6581 146.294 94.0913 145.72 98.5341 141.421C104.267 135.831 112.722 117.057 114.872 105.162C116.305 97.4227 115.875 92.6933 111.719 74.2055C110.429 68.4728 109.426 60.4471 109.426 56.5776C109.426 50.2716 109.139 49.5551 106.273 49.5551C104.41 49.6984 99.394 51.1315 94.8078 52.9946ZM100.827 69.1894C93.8046 70.3359 89.2185 72.9156 87.0688 76.9285C84.4891 82.2312 83.0559 82.2312 84.3458 77.0718C86.0656 70.1926 89.0752 68.1862 97.1009 68.3295C101.114 68.4728 102.834 68.9028 100.827 69.1894ZM67.4344 77.0718C72.5938 82.9478 72.4505 84.0943 67.0045 80.3681C61.2718 76.4985 56.5424 75.9253 51.8129 78.3616C50.2365 79.2215 48.66 79.5082 48.23 79.2215C46.9402 77.7884 55.6825 74.0621 60.1253 73.9188C62.8483 73.9188 65.5713 75.0654 67.4344 77.0718ZM106.703 80.9413L109.856 83.521L103.264 84.2376C99.1073 84.6676 94.6645 86.5307 91.6549 88.8237C88.9319 90.8302 86.4955 92.55 86.0656 92.55C84.4891 92.55 87.2121 83.8077 89.5051 81.228C93.0881 77.3584 102.117 77.2151 106.703 80.9413ZM69.4409 88.1071C75.3168 94.1264 74.6002 95.273 66.4312 93.1232C61.5585 91.8334 57.8322 91.6901 54.6793 92.55C49.2333 94.2698 48.5167 93.6965 50.6664 89.6836C54.2493 83.0911 63.5649 82.2312 69.4409 88.1071ZM110.573 104.159C108.853 109.318 107.276 109.605 108.566 104.589C109.569 101.006 109.283 100.862 105.557 101.722L101.544 102.725L105.127 99.8591C109.856 96.1329 112.722 98.1393 110.573 104.159ZM86.3522 107.598C84.2024 108.745 80.6195 109.461 78.1832 109.318C70.5874 108.745 76.8933 106.022 86.4955 105.735L90.0784 105.592L86.3522 107.598ZM105.127 107.885C104.84 117.487 95.9544 130.385 88.072 132.822C83.0559 134.255 81.6227 134.112 75.8901 131.245C70.1574 128.522 59.2654 117.344 59.2654 114.191C59.2654 113.761 64.1382 113.617 70.1574 113.761C78.6131 114.191 83.4859 113.474 91.0816 111.181C96.3843 109.318 101.257 107.312 101.687 106.738C102.977 104.589 105.127 105.305 105.127 107.885ZM59.2654 108.315C60.9852 109.461 60.8419 109.748 58.2622 109.748C54.536 109.748 54.3926 110.178 56.3991 114.191C58.2622 117.63 56.6857 117.774 54.106 114.334C49.8065 108.745 53.3894 104.589 59.2654 108.315ZM94.6645 134.828C90.0784 138.984 81.4794 139.701 77.0366 136.405C74.6002 134.542 75.0302 134.398 80.3329 135.831C85.6356 137.121 87.0688 136.835 91.0816 134.398C97.6742 130.385 99.5373 130.672 94.6645 134.828Z" fill="black"/>
<path d="M119.028 82.0878C118.455 82.5178 118.025 87.5339 118.025 92.9799C118.025 98.4259 117.022 106.882 115.732 111.754C111.433 128.236 113.009 139.558 122.468 159.049C127.484 169.367 131.497 173.954 137.946 176.677C147.118 180.546 156.291 176.103 169.046 161.055C180.654 147.583 183.664 140.418 185.384 122.646C186.244 114.334 187.963 104.159 189.11 99.8591C190.686 94.1264 190.83 91.8333 189.683 91.1168C188.823 90.5435 180.511 90.4002 171.339 90.8301C155.001 91.4034 154.141 91.4034 139.093 86.244C123.041 80.9413 120.605 80.368 119.028 82.0878ZM146.688 101.865C146.688 102.152 145.255 103.729 143.535 105.448C141.386 107.455 138.519 108.315 134.22 108.315C130.78 108.315 126.051 109.318 123.758 110.464C118.598 113.044 118.312 112.328 122.611 108.315C124.474 106.595 127.771 105.448 130.78 105.305C134.793 105.305 141.816 103.442 146.402 101.292C146.545 101.292 146.688 101.436 146.688 101.865ZM169.619 109.891C175.495 111.898 181.084 116.627 181.084 119.493C181.084 121.356 180.654 121.213 178.648 119.207C177.215 117.774 172.629 114.907 168.329 112.758C163.17 110.321 160.017 107.741 159.3 105.448L158.01 102.009L161.307 105.162C163.17 106.882 166.896 109.031 169.619 109.891ZM145.255 111.611C145.255 112.614 144.395 114.764 143.249 116.34C141.529 118.633 139.379 119.063 130.207 119.063H119.315L123.041 115.767C125.621 113.617 128.774 112.614 132.787 112.471C136.083 112.471 140.096 111.898 141.672 111.181C143.249 110.464 144.682 109.891 144.969 109.891C145.112 109.748 145.255 110.608 145.255 111.611ZM166.609 116.914C170.192 116.914 177.788 122.073 178.505 125.083C179.221 127.806 178.935 127.806 174.062 126.086C171.195 125.083 167.469 124.223 165.749 124.08C162.167 124.08 156.72 117.774 156.72 113.761C156.72 111.038 156.864 111.038 160.447 113.904C162.596 115.624 165.319 116.914 166.609 116.914ZM131.927 136.691C130.78 137.981 128.63 141.134 127.484 143.427C126.051 146.007 125.191 146.723 125.191 145.29C125.191 142.997 131.783 134.112 133.36 134.112C133.933 134.112 133.217 135.258 131.927 136.691ZM154.571 137.121C156.864 139.414 144.682 138.411 141.672 136.118C138.949 134.112 139.379 133.968 145.972 134.828C149.985 135.402 153.711 136.405 154.571 137.121ZM166.179 148.587L166.753 154.893L164.89 148.157C163.743 144.43 162.023 140.274 161.02 138.841C159.587 137.121 160.017 137.265 162.31 139.271C164.46 141.277 165.749 144.43 166.179 148.587ZM156.147 149.017C160.877 153.746 162.453 156.326 162.453 159.765C162.453 162.202 162.167 164.208 161.88 164.208C161.593 164.208 157.724 162.488 153.138 160.482C145.828 157.042 143.822 156.756 135.08 157.616C128.917 158.332 125.191 158.189 125.191 157.186C125.191 154.606 132.93 146.58 137.373 144.717C145.255 141.277 149.411 142.137 156.147 149.017ZM150.271 162.058C153.997 163.778 154.141 164.065 150.988 163.348C148.981 162.918 144.109 162.058 140.239 161.485L133.073 160.195H139.523C143.105 160.052 147.978 160.912 150.271 162.058Z" fill="black"/>
</svg>
